<?xml version="1.0" encoding="iso-8859-1"?>
<!-- Generator: Adobe Illustrator 23.0.2, SVG Export Plug-In . SVG Version: 6.00 Build 0)  -->

<svg id="Capa_1" data-name="Capa 1" xmlns="https://www.w3.org/2000/svg" viewBox="0 0 502 502" width="512px" height="512px">

<defs>
<style>.cls-1{fill:#879d99;stroke:#fff;stroke-miterlimit:10;}.cls-2{fill:#fff;}</style>
</defs>
<title>right-arrow-button</title>
<circle class="cls-1" cx="251" cy="251" r="250.5"/>

<path class="cls-2" d="M299.3,170.8a8.7,8.7,0,0,0-12.6,0,9.1,9.1,0,0,0,0,12.5l63.9,63.8H139.8a8.7,8.7,0,0,0-8.8,8.8,8.9,8.9,0,0,0,8.8,9H350.6l-63.9,63.8a9.1,9.1,0,0,0,0,12.5,8.7,8.7,0,0,0,12.6,0l79-79a8.6,8.6,0,0,0,0-12.5Z" transform="translate(-5 -5)"/></svg>
